<svg width="13" height="12" viewBox="0 0 13 12" fill="none" xmlns="http://www.w3.org/2000/svg"><path d="M1.33333 12C0.966667 12 0.652778 11.8694 0.391667 11.6083C0.130556 11.3472 0 11.0333 0 10.6667V1.33333C0 0.966667 0.130556 0.652778 0.391667 0.391667C0.652778 0.130556 0.966667 0 1.33333 0H10.6667C11.0333 0 11.3472 0.130556 11.6083 0.391667C11.8694 0.652778 12 0.966667 12 1.33333C12 1.33333 12 2 11.3333 2C10.6667 2 10.6667 1.33333 10.6667 1.33333H1.33333V10.6667H10.6667C10.6667 10.6667 10.6667 10 11.3333 10C12 10 12 10.6667 12 10.6667C12 11.0333 11.8694 11.3472 11.6083 11.6083C11.3472 11.8694 11.0333 12 10.6667 12H1.33333ZM6.66667 9.33333C6.3 9.33333 5.98611 9.20278 5.725 8.94167C5.46389 8.68056 5.33333 8.36667 5.33333 8V4C5.33333 3.63333 5.46389 3.31944 5.725 3.05833C5.98611 2.79722 6.3 2.66667 6.66667 2.66667H11.3333C11.7 2.66667 12.0139 2.79722 12.275 3.05833C12.5361 3.31944 12.6667 3.63333 12.6667 4V8C12.6667 8.36667 12.5361 8.68056 12.275 8.94167C12.0139 9.20278 11.7 9.33333 11.3333 9.33333H6.66667ZM11.3333 8V4H6.66667V8H11.3333Z" fill="#092256"></path><path d="M9.37484 6.70833C9.18039 6.90278 8.94428 7 8.6665 7C8.38873 7 8.15261 6.90278 7.95817 6.70833C7.76373 6.51389 7.6665 6.27778 7.6665 6C7.6665 5.72222 7.76373 5.48611 7.95817 5.29167C8.15261 5.09722 8.38873 5 8.6665 5C8.94428 5 9.18039 5.09722 9.37484 5.29167C9.56928 5.48611 9.6665 5.72222 9.6665 6C9.6665 6.27778 9.56928 6.51389 9.37484 6.70833Z" fill="#0357EE"></path></svg>