<svg width="16" height="17" viewBox="0 0 16 17" fill="none" xmlns="http://www.w3.org/2000/svg"><path d="M13.5306 7.03073L8.5306 12.0307C8.46092 12.1007 8.37813 12.1561 8.28696 12.194C8.1958 12.2318 8.09806 12.2513 7.99935 12.2513C7.90064 12.2513 7.8029 12.2318 7.71173 12.194C7.62057 12.1561 7.53778 12.1007 7.4681 12.0307L2.4681 7.03073C2.3272 6.88984 2.24805 6.69874 2.24805 6.49948C2.24805 6.30023 2.3272 6.10913 2.4681 5.96823C2.60899 5.82734 2.80009 5.74818 2.99935 5.74818C3.19861 5.74818 3.3897 5.82734 3.5306 5.96823L7.99997 10.4376L12.4693 5.96761C12.6102 5.82671 12.8013 5.74756 13.0006 5.74756C13.1999 5.74756 13.391 5.82671 13.5318 5.96761C13.6727 6.10851 13.7519 6.2996 13.7519 6.49886C13.7519 6.69812 13.6727 6.88921 13.5318 7.03011L13.5306 7.03073Z" fill="#0357EE"></path></svg>