<svg role="button" width="34" height="34" viewBox="0 0 34 34" fill="none" xmlns="http://www.w3.org/2000/svg"><rect x="0.5" y="0.5" width="33" height="33" rx="16.5" fill="white"></rect><mask id="mask0_2300_39395" maskUnits="userSpaceOnUse" x="7" y="7" width="20" height="20"><rect x="7" y="7" width="20" height="20" fill="#D9D9D9"></rect></mask><g mask="url(#mask0_2300_39395)"><path d="M17 18.5435L13.1051 22.4384C12.8974 22.6462 12.6401 22.75 12.3334 22.75C12.0266 22.75 11.7693 22.6462 11.5616 22.4384C11.3539 22.2307 11.25 21.9735 11.25 21.6667C11.25 21.3599 11.3539 21.1027 11.5616 20.8949L15.4565 17L11.5616 13.1051C11.3539 12.8974 11.25 12.6401 11.25 12.3334C11.25 12.0266 11.3539 11.7693 11.5616 11.5616C11.7693 11.3539 12.0266 11.25 12.3334 11.25C12.6401 11.25 12.8974 11.3539 13.1051 11.5616L17 15.4565L20.8949 11.5616C21.1027 11.3539 21.3599 11.25 21.6667 11.25C21.9735 11.25 22.2307 11.3539 22.4384 11.5616C22.6462 11.7693 22.75 12.0266 22.75 12.3334C22.75 12.6401 22.6462 12.8974 22.4384 13.1051L18.5435 17L22.4384 20.8949C22.6462 21.1027 22.75 21.3599 22.75 21.6667C22.75 21.9735 22.6462 22.2307 22.4384 22.4384C22.2307 22.6462 21.9735 22.75 21.6667 22.75C21.3599 22.75 21.1027 22.6462 20.8949 22.4384L17 18.5435Z" fill="#031335"></path></g><rect x="0.5" y="0.5" width="33" height="33" rx="16.5" stroke="#C3C9D5"></rect></svg>