<svg width="16" height="16" viewBox="0 0 16 16" fill="none" xmlns="http://www.w3.org/2000/svg"><mask id="mask0_3359_15427" maskUnits="userSpaceOnUse" x="0" y="0" width="16" height="16"><rect width="16" height="16" fill="#D9D9D9"></rect></mask><g mask="url(#mask0_3359_15427)"><path d="M2.66683 5.33329H13.3335V3.99996H2.66683V5.33329ZM1.3335 3.99996C1.3335 3.63329 1.46405 3.3194 1.72516 3.05829C1.98627 2.79718 2.30016 2.66663 2.66683 2.66663H13.3335C13.7002 2.66663 14.0141 2.79718 14.2752 3.05829C14.5363 3.3194 14.6668 3.63329 14.6668 3.99996V7.99996H2.66683V12H4.7335C4.92239 12 5.08072 12.0638 5.2085 12.1916C5.33627 12.3194 5.40016 12.4777 5.40016 12.6666C5.40016 12.8555 5.33627 13.0138 5.2085 13.1416C5.08072 13.2694 4.92239 13.3333 4.7335 13.3333H2.66683C2.30016 13.3333 1.98627 13.2027 1.72516 12.9416C1.46405 12.6805 1.3335 12.3666 1.3335 12V3.99996ZM2.66683 3.99996V12V9.82496V10.8833V3.99996Z" fill="#092256"></path><path d="M13.2502 9.48326L9.96687 12.7666L8.53354 11.3666C8.4002 11.2444 8.24187 11.1833 8.05854 11.1833C7.8752 11.1833 7.72243 11.2444 7.6002 11.3666C7.46687 11.4999 7.40298 11.6583 7.40854 11.8416C7.41409 12.0249 7.47798 12.1777 7.6002 12.2999L9.5002 14.1999C9.63354 14.3333 9.78909 14.3999 9.96687 14.3999C10.1446 14.3999 10.3002 14.3333 10.4335 14.1999L14.2002 10.4333C14.3335 10.2999 14.3974 10.1444 14.3919 9.96659C14.3863 9.78882 14.3224 9.63326 14.2002 9.49993C14.0669 9.36659 13.9085 9.29715 13.7252 9.29159C13.5419 9.28604 13.3835 9.34993 13.2502 9.48326Z" fill="#0357EE"></path></g></svg>