<svg width="16" height="16" viewBox="0 0 16 16" fill="none" xmlns="http://www.w3.org/2000/svg"><mask id="mask0_3359_15627" maskUnits="userSpaceOnUse" x="0" y="0" width="16" height="16"><rect width="16" height="16" fill="#D9D9D9"></rect></mask><g mask="url(#mask0_3359_15627)"><path d="M2.66683 14C2.30016 14 1.98627 13.8695 1.72516 13.6084C1.46405 13.3473 1.3335 13.0334 1.3335 12.6667V5.33337C1.3335 4.96671 1.46405 4.65282 1.72516 4.39171C1.98627 4.1306 2.30016 4.00004 2.66683 4.00004H5.3335V2.66671C5.3335 2.30004 5.46405 1.98615 5.72516 1.72504C5.98627 1.46393 6.30016 1.33337 6.66683 1.33337H9.3335C9.70016 1.33337 10.0141 1.46393 10.2752 1.72504C10.5363 1.98615 10.6668 2.30004 10.6668 2.66671V4.00004H13.3335C13.7002 4.00004 14.0141 4.1306 14.2752 4.39171C14.5363 4.65282 14.6668 4.96671 14.6668 5.33337V12.6667C14.6668 13.0334 14.5363 13.3473 14.2752 13.6084C14.0141 13.8695 13.7002 14 13.3335 14H2.66683ZM2.66683 12.6667H13.3335V5.33337H2.66683V12.6667ZM6.66683 4.00004H9.3335V2.66671H6.66683V4.00004Z" fill="#092256"></path><path d="M6.86693 10.2667L8.13359 9.00003L6.86693 7.73337C6.7447 7.61114 6.68359 7.45559 6.68359 7.2667C6.68359 7.07781 6.7447 6.92225 6.86693 6.80003C6.98915 6.67781 7.1447 6.6167 7.33359 6.6167C7.52248 6.6167 7.67804 6.67781 7.80026 6.80003L9.53359 8.53337C9.66693 8.6667 9.73359 8.82225 9.73359 9.00003C9.73359 9.17781 9.66693 9.33337 9.53359 9.4667L7.80026 11.2C7.67804 11.3223 7.52248 11.3834 7.33359 11.3834C7.1447 11.3834 6.98915 11.3223 6.86693 11.2C6.7447 11.0778 6.68359 10.9223 6.68359 10.7334C6.68359 10.5445 6.7447 10.3889 6.86693 10.2667Z" fill="#0357EE"></path></g></svg>