<svg width="16" height="16" viewBox="0 0 16 16" fill="none" xmlns="http://www.w3.org/2000/svg"><mask id="mask0_3359_15662" maskUnits="userSpaceOnUse" x="0" y="0" width="16" height="16"><rect width="16" height="16" fill="#D9D9D9"></rect></mask><g mask="url(#mask0_3359_15662)"><path d="M2.66683 14C2.30016 14 1.98627 13.8694 1.72516 13.6083C1.46405 13.3472 1.3335 13.0333 1.3335 12.6667V5.33333C1.3335 5.14444 1.39738 4.98611 1.52516 4.85833C1.65294 4.73056 1.81127 4.66667 2.00016 4.66667C2.18905 4.66667 2.34738 4.73056 2.47516 4.85833C2.60294 4.98611 2.66683 5.14444 2.66683 5.33333V12.6667H12.0002C12.1891 12.6667 12.3474 12.7306 12.4752 12.8583C12.6029 12.9861 12.6668 13.1444 12.6668 13.3333C12.6668 13.5222 12.6029 13.6806 12.4752 13.8083C12.3474 13.9361 12.1891 14 12.0002 14H2.66683ZM5.3335 11.3333C4.96683 11.3333 4.65294 11.2028 4.39183 10.9417C4.13072 10.6806 4.00016 10.3667 4.00016 10V2.66667C4.00016 2.47778 4.06405 2.31944 4.19183 2.19167C4.31961 2.06389 4.47794 2 4.66683 2H14.6668C14.8557 2 15.0141 2.06389 15.1418 2.19167C15.2696 2.31944 15.3335 2.47778 15.3335 2.66667V10C15.3335 10.3667 15.2029 10.6806 14.9418 10.9417C14.6807 11.2028 14.3668 11.3333 14.0002 11.3333H5.3335ZM5.3335 10H14.0002V3.33333H5.3335V10Z" fill="#092256"></path><path d="M8.66699 7.99996H7.33366C7.14477 7.99996 6.98644 7.93607 6.85866 7.80829C6.73088 7.68052 6.66699 7.52218 6.66699 7.33329V5.33329C6.66699 5.1444 6.73088 4.98607 6.85866 4.85829C6.98644 4.73051 7.14477 4.66663 7.33366 4.66663H8.66699C8.85588 4.66663 9.01421 4.73051 9.14199 4.85829C9.26977 4.98607 9.33366 5.1444 9.33366 5.33329V7.33329C9.33366 7.52218 9.26977 7.68052 9.14199 7.80829C9.01421 7.93607 8.85588 7.99996 8.66699 7.99996Z" fill="#0357EE"></path><path d="M12.0003 7.99996H10.667C10.4781 7.99996 10.3198 7.93607 10.192 7.80829C10.0642 7.68052 10.0003 7.52218 10.0003 7.33329C10.0003 7.1444 10.0642 6.98607 10.192 6.85829C10.3198 6.73052 10.4781 6.66663 10.667 6.66663H12.0003C12.1892 6.66663 12.3475 6.73052 12.4753 6.85829C12.6031 6.98607 12.667 7.1444 12.667 7.33329C12.667 7.52218 12.6031 7.68052 12.4753 7.80829C12.3475 7.93607 12.1892 7.99996 12.0003 7.99996Z" fill="#0357EE"></path><path d="M12.0003 5.99996H10.667C10.4781 5.99996 10.3198 5.93607 10.192 5.80829C10.0642 5.68051 10.0003 5.52218 10.0003 5.33329C10.0003 5.1444 10.0642 4.98607 10.192 4.85829C10.3198 4.73051 10.4781 4.66663 10.667 4.66663H12.0003C12.1892 4.66663 12.3475 4.73051 12.4753 4.85829C12.6031 4.98607 12.667 5.1444 12.667 5.33329C12.667 5.52218 12.6031 5.68051 12.4753 5.80829C12.3475 5.93607 12.1892 5.99996 12.0003 5.99996Z" fill="#0357EE"></path></g></svg>