<svg width="85" height="84" viewBox="0 0 85 84" fill="none" xmlns="http://www.w3.org/2000/svg">
<path d="M42.5009 84H42.1958C22.5641 83.9486 9.41016 79.8846 6.67636 77.3782C3.79598 74.8165 0.000366211 61.5689 0.000366211 42C0.000366211 22.4311 3.79598 9.18355 6.68033 6.6218C9.41016 4.1154 22.6156 0.0513931 42.1958 0H42.5009C62.1327 0.0513931 75.2866 4.1154 78.0204 6.6218C80.9048 9.17959 84.7004 22.4785 84.7004 41.996C84.7004 61.5136 80.9048 74.8125 78.0204 77.3703C75.2866 79.9281 62.1327 83.9921 42.5009 83.9921V84Z" fill="#FFFAEB"/>
<mask id="mask0_2501_28570" style="mask-type:alpha" maskUnits="userSpaceOnUse" x="22" y="22" width="41" height="41">
<rect x="22.7427" y="22.418" width="40" height="40" fill="#D9D9D9"/>
</mask>
<g mask="url(#mask0_2501_28570)">
<path d="M55.9093 57.418C52.6038 57.418 49.2705 56.6471 45.9093 55.1055C42.5482 53.5638 39.451 51.3763 36.6177 48.543C33.7843 45.7096 31.5968 42.6124 30.0552 39.2513C28.5135 35.8902 27.7427 32.5569 27.7427 29.2513C27.7427 28.7328 27.9186 28.2976 28.2705 27.9458C28.6223 27.5939 29.0575 27.418 29.576 27.418H35.7149C36.1038 27.418 36.4417 27.5545 36.7288 27.8277C37.0158 28.1008 37.2056 28.4365 37.2982 28.8346L38.4093 34.2791C38.4649 34.6865 38.4556 35.0476 38.3816 35.3624C38.3075 35.6772 38.1593 35.9457 37.9371 36.168L33.8121 40.3346C34.4788 41.4921 35.2079 42.5823 35.9996 43.6055C36.7913 44.6286 37.664 45.6031 38.6177 46.5291C39.5899 47.5198 40.6131 48.4296 41.6871 49.2583C42.7612 50.087 43.8908 50.8254 45.076 51.4736L49.0205 47.4458C49.289 47.1587 49.6108 46.9573 49.9858 46.8416C50.3608 46.7258 50.7334 46.6957 51.1038 46.7513L56.326 47.8624C56.7334 47.9735 57.0714 48.1888 57.3399 48.5083C57.6084 48.8277 57.7427 49.1865 57.7427 49.5846V55.5846C57.7427 56.1032 57.5667 56.5383 57.2149 56.8902C56.8631 57.242 56.4279 57.418 55.9093 57.418Z" fill="#092256"/>
<path d="M43.187 28.8068V41.0846C43.187 41.3994 43.3213 41.617 43.5898 41.7374C43.8583 41.8577 44.1129 41.8068 44.3537 41.5846L47.7426 38.3068H56.3537C56.7518 38.3068 57.0828 38.1749 57.3467 37.911C57.6106 37.6471 57.7426 37.3161 57.7426 36.918V28.8068C57.7426 28.4087 57.6106 28.0777 57.3467 27.8138C57.0828 27.5499 56.7518 27.418 56.3537 27.418H44.5759C44.1777 27.418 43.8467 27.5499 43.5828 27.8138C43.319 28.0777 43.187 28.4087 43.187 28.8068Z" fill="#0357EE"/>
</g>
</svg>
