<svg width="40" height="40" viewBox="0 0 40 40" fill="none" xmlns="http://www.w3.org/2000/svg">
<path d="M28.3496 20.9734C28.3148 17.1058 31.5164 15.2242 31.6628 15.1366C29.8496 12.493 27.0392 12.1318 26.0516 12.103C23.6912 11.8546 21.4016 13.5154 20.1992 13.5154C18.9728 13.5154 17.1212 12.127 15.1256 12.1678C12.5576 12.2074 10.1552 13.6942 8.83764 16.003C6.11844 20.7106 8.14644 27.6286 10.7516 31.4338C12.0548 33.2974 13.5776 35.3782 15.5708 35.305C17.5208 35.2246 18.2492 34.0618 20.6024 34.0618C22.934 34.0618 23.618 35.305 25.6508 35.2582C27.7436 35.2246 29.0612 33.3862 30.3188 31.5058C31.8248 29.3698 32.4296 27.2662 32.4536 27.1582C32.4044 27.1414 28.3892 25.609 28.3496 20.9734Z" fill="white"/>
<path d="M24.5097 9.59967C25.5585 8.28807 26.2761 6.50367 26.0769 4.69287C24.5589 4.76007 22.6605 5.74287 21.5673 7.02567C20.6001 8.15607 19.736 10.0089 19.9592 11.7513C21.6645 11.8785 23.4153 10.8909 24.5097 9.59967Z" fill="white"/>
</svg>
