<svg width="16" height="16" viewBox="0 0 16 16" fill="none" xmlns="http://www.w3.org/2000/svg"><mask id="mask0_3359_15462" maskUnits="userSpaceOnUse" x="0" y="0" width="16" height="16"><rect width="16" height="16" fill="#D9D9D9"></rect></mask><g mask="url(#mask0_3359_15462)"><path d="M7.99984 12C7.37761 12 6.78317 12.0973 6.2165 12.2917C5.64984 12.4862 5.13317 12.7778 4.6665 13.1667V13.3334H11.3332V13.1667C10.8665 12.7778 10.3498 12.4862 9.78317 12.2917C9.2165 12.0973 8.62206 12 7.99984 12ZM7.99984 10.6667C8.7665 10.6667 9.48317 10.7834 10.1498 11.0167C10.8165 11.25 11.4332 11.5778 11.9998 12V2.66671H3.99984V12C4.5665 11.5778 5.18317 11.25 5.84984 11.0167C6.5165 10.7834 7.23317 10.6667 7.99984 10.6667ZM3.99984 14.6667C3.63317 14.6667 3.31928 14.5362 3.05817 14.275C2.79706 14.0139 2.6665 13.7 2.6665 13.3334V2.66671C2.6665 2.30004 2.79706 1.98615 3.05817 1.72504C3.31928 1.46393 3.63317 1.33337 3.99984 1.33337H11.9998C12.3665 1.33337 12.6804 1.46393 12.9415 1.72504C13.2026 1.98615 13.3332 2.30004 13.3332 2.66671V13.3334C13.3332 13.7 13.2026 14.0139 12.9415 14.275C12.6804 14.5362 12.3665 14.6667 11.9998 14.6667H3.99984Z" fill="#092256"></path><path fill-rule="evenodd" clip-rule="evenodd" d="M7.99984 9.33342C8.64428 9.33342 9.19428 9.10564 9.64984 8.65008C10.1054 8.19453 10.3332 7.64453 10.3332 7.00008C10.3332 6.35564 10.1054 5.80564 9.64984 5.35008C9.19428 4.89453 8.64428 4.66675 7.99984 4.66675C7.35539 4.66675 6.80539 4.89453 6.34984 5.35008C5.89428 5.80564 5.6665 6.35564 5.6665 7.00008C5.6665 7.64453 5.89428 8.19453 6.34984 8.65008C6.80539 9.10564 7.35539 9.33342 7.99984 9.33342ZM8 8C8.55228 8 9 7.55228 9 7C9 6.44772 8.55228 6 8 6C7.44772 6 7 6.44772 7 7C7 7.55228 7.44772 8 8 8Z" fill="#0357EE"></path></g></svg>