<svg width="1411" height="420" viewBox="0 0 1411 420" fill="none" xmlns="http://www.w3.org/2000/svg">
<g opacity="0.2">
<path opacity="0.2" d="M534.856 810.408L538.715 811.631C787.286 889.708 970.064 890.829 1014.74 869.949C1061.5 848.955 1162.87 695.874 1241.68 447.261C1320.49 198.649 1325.82 15.1242 1299.65 -28.9885C1275.2 -71.7785 1124.51 -176.367 877.003 -255.544L873.143 -256.767C624.572 -334.844 441.794 -335.964 397.115 -315.085C350.324 -294.157 248.747 -140.422 170.146 107.537C91.5442 355.496 86.0048 539.674 112.194 583.737C136.479 627.195 286.524 731.578 534.887 810.307L534.856 810.408Z" fill="#055FFF"/>
<path opacity="0.2" d="M552.215 756.322L555.683 757.421C779.03 827.575 943.26 828.581 983.405 809.821C1025.42 790.957 1116.5 653.41 1187.31 430.026C1258.12 206.642 1262.91 41.7414 1239.4 2.10508C1217.44 -36.3427 1082.03 -130.318 859.642 -201.46L856.174 -202.559C632.828 -272.713 468.598 -273.719 428.452 -254.959C386.409 -236.155 295.141 -98.0209 224.515 124.776C153.89 347.573 148.913 513.061 172.444 552.652C194.265 591.701 329.083 685.491 552.244 756.231L552.215 756.322Z" fill="#0453E1"/>
<path opacity="0.2" d="M570.027 700.818L573.093 701.79C770.554 763.813 915.75 764.703 951.242 748.117C988.385 731.439 1068.91 609.834 1131.52 412.34C1194.12 214.846 1198.36 69.0573 1177.56 34.0149C1158.15 0.0232207 1038.44 -83.0605 841.823 -145.957L838.757 -146.929C641.297 -208.952 496.101 -209.842 460.608 -193.256C423.438 -176.631 342.747 -54.5064 280.308 142.468C217.868 339.443 213.467 485.751 234.272 520.754C253.563 555.277 372.756 638.196 570.053 700.738L570.027 700.818Z" fill="#0349C6"/>
<path opacity="0.4" d="M589.009 642.157L591.65 642.993C761.753 696.35 886.818 697.068 917.383 682.77C949.371 668.392 1018.69 563.62 1072.55 393.489C1126.41 223.357 1130.01 97.7809 1112.08 67.6042C1095.35 38.3322 992.209 -33.1914 822.835 -87.3007L820.194 -88.1368C650.091 -141.494 525.026 -142.211 494.461 -127.913C462.45 -113.581 392.988 -8.36232 339.272 161.322C285.556 331.007 281.815 457.03 299.747 487.173C316.375 516.902 419.069 588.285 589.031 642.088L589.009 642.157Z" fill="#0349C6"/>
<path opacity="0.6" d="M646.649 587.913L648.896 588.334C793.585 615.018 896.11 603.088 919.719 588.315C944.484 573.335 990.784 480.568 1017.87 335.805C1044.97 191.042 1035.35 87.8091 1017.64 64.882C1001 42.5774 909.353 -5.69121 765.185 -33.0644L762.938 -33.485C618.249 -60.1688 515.724 -48.2386 492.115 -33.466C467.327 -18.5208 420.955 74.6269 393.935 219.01C366.915 363.392 376.465 467.005 394.172 489.903C410.769 512.593 502.042 560.791 646.66 587.855L646.649 587.913Z" fill="#0349C6"/>
<path opacity="0.8" d="M681.785 521.552L683.551 521.72C797.251 532.244 875.664 515.865 892.88 502.798C910.976 489.49 940.287 414.554 951.12 300.769C961.953 186.984 947.31 107.863 932.027 91.3772C917.609 75.2987 843.397 44.3885 730.053 33.2958L728.286 33.1276C614.587 22.6041 536.174 38.9833 518.957 52.0499C500.84 65.3324 471.501 140.568 460.696 254.054C449.892 367.54 464.507 446.96 479.791 463.423C494.205 479.802 568.118 510.684 681.789 521.506L681.785 521.552Z" fill="#0349C6"/>
<path d="M670.197 455.303L671.484 455.557C754.384 471.663 813.293 465.377 826.924 457.027C841.22 448.565 868.301 395.573 884.642 312.634C900.982 229.695 896.025 170.392 885.991 157.136C876.562 144.243 824.222 116.038 741.626 99.5388L740.339 99.2851C657.44 83.1788 598.53 89.4656 584.899 97.8154C570.59 106.258 543.465 159.467 527.168 242.188C510.87 324.909 515.785 384.431 525.822 397.67C535.224 410.784 587.347 438.946 670.203 455.27L670.197 455.303Z" fill="#0349C6"/>
</g>
</svg>
