<svg width="13" height="12" viewBox="0 0 13 12" fill="none" xmlns="http://www.w3.org/2000/svg"><path d="M11.4242 8.01291H8.55749L9.04415 5.35428H11.4242C11.601 5.35428 11.7705 5.28426 11.8956 5.15961C12.0206 5.03496 12.0908 4.8659 12.0908 4.68963C12.0908 4.51335 12.0206 4.34429 11.8956 4.21964C11.7705 4.095 11.601 4.02497 11.4242 4.02497H9.28415L9.74415 1.49263C9.76233 1.40377 9.76207 1.31214 9.7434 1.22338C9.72473 1.13462 9.68804 1.05061 9.63558 0.976517C9.58312 0.902426 9.51601 0.839822 9.43837 0.792557C9.36074 0.745293 9.27422 0.714368 9.18415 0.701687C9.09459 0.680416 9.00159 0.67787 8.91099 0.694208C8.8204 0.710547 8.73418 0.745415 8.65777 0.796618C8.58136 0.84782 8.51642 0.914246 8.46703 0.991709C8.41764 1.06917 8.38489 1.156 8.37082 1.24671L7.87082 4.02497H5.28415L5.74415 1.49263C5.76233 1.40377 5.76207 1.31214 5.7434 1.22338C5.72473 1.13462 5.68804 1.05061 5.63558 0.976517C5.58312 0.902426 5.51601 0.839822 5.43837 0.792557C5.36074 0.745293 5.27423 0.714368 5.18415 0.701687C5.09459 0.680416 5.00159 0.67787 4.91099 0.694208C4.8204 0.710547 4.73418 0.745415 4.65777 0.796618C4.58136 0.84782 4.51642 0.914246 4.46703 0.991709C4.41764 1.06917 4.38489 1.156 4.37082 1.24671L3.87082 4.02497H0.757487C0.580676 4.02497 0.411107 4.095 0.286082 4.21964C0.161058 4.34429 0.0908203 4.51335 0.0908203 4.68963C0.0908203 4.8659 0.161058 5.03496 0.286082 5.15961C0.411107 5.28426 0.580676 5.35428 0.757487 5.35428H3.62415L3.13749 8.01291H0.757487C0.580676 8.01291 0.411107 8.08293 0.286082 8.20758C0.161058 8.33223 0.0908203 8.50129 0.0908203 8.67756C0.0908203 8.85384 0.161058 9.0229 0.286082 9.14755C0.411107 9.27219 0.580676 9.34222 0.757487 9.34222H2.89749L2.43749 11.8746C2.41931 11.9634 2.41957 12.0551 2.43824 12.1438C2.45691 12.2326 2.49361 12.3166 2.54606 12.3907C2.59852 12.4648 2.66563 12.5274 2.74327 12.5746C2.8209 12.6219 2.90742 12.6528 2.99749 12.6655C3.08705 12.6868 3.18005 12.6893 3.27065 12.673C3.36124 12.6566 3.44746 12.6218 3.52387 12.5706C3.60028 12.5194 3.66522 12.4529 3.71461 12.3755C3.764 12.298 3.79675 12.2112 3.81082 12.1205L4.31082 9.34222H6.89749L6.43749 11.8746C6.41931 11.9634 6.41957 12.0551 6.43824 12.1438C6.45691 12.2326 6.49361 12.3166 6.54606 12.3907C6.59852 12.4648 6.66563 12.5274 6.74327 12.5746C6.8209 12.6219 6.90742 12.6528 6.99749 12.6655C7.08705 12.6868 7.18005 12.6893 7.27065 12.673C7.36124 12.6566 7.44746 12.6218 7.52387 12.5706C7.60028 12.5194 7.66522 12.4529 7.71461 12.3755C7.764 12.298 7.79675 12.2112 7.81082 12.1205L8.31082 9.34222H11.4242C11.601 9.34222 11.7705 9.27219 11.8956 9.14755C12.0206 9.0229 12.0908 8.85384 12.0908 8.67756C12.0908 8.50129 12.0206 8.33223 11.8956 8.20758C11.7705 8.08293 11.601 8.01291 11.4242 8.01291ZM4.55749 8.01291L5.04415 5.35428H7.62415L7.13749 8.01291H4.55749Z" fill="#092256"></path></svg>