<svg width="25" height="25" viewBox="0 0 25 25" fill="none" xmlns="http://www.w3.org/2000/svg"><mask id="mask0_2857_5948" maskUnits="userSpaceOnUse" x="0" y="0" width="25" height="25"><rect x="0.5" y="0.5" width="24" height="24" fill="#D9D9D9"></rect></mask><g mask="url(#mask0_2857_5948)"><path d="M15.8978 13.8252H5.34453C4.97641 13.8252 4.66355 13.6964 4.40593 13.4388C4.14833 13.1812 4.01953 12.8683 4.01953 12.5002C4.01953 12.1321 4.14833 11.8192 4.40593 11.5616C4.66355 11.304 4.97641 11.1752 5.34453 11.1752h25.8978L11.5489 6.8263C11.2829 6.56035 11.1518 6.24695 11.1554 5.88608C11.159 5.5252 11.2938 5.21179 11.5598 4.94585C11.8257 4.69657 12.1391 4.57011 12.5 4.56648C12.8608 4.56286 13.1743 4.69403 13.4402 4.95998L20.0402 11.56C20.1685 11.6882 20.2652 11.8343 20.3304 11.998C20.3956 12.1618 20.4283 12.3292 20.4283 12.5002C20.4283 12.6712 20.3956 12.8386 20.3304 13.0024C20.2652 13.1661 20.1685 13.3122 20.0402 13.4404L13.4261 20.0546C13.1674 20.3133 12.8581 20.4426 12.4984 20.4426C12.1386 20.4426 11.8257 20.3133 11.5598 20.0546C11.2938 19.7886 11.1608 19.4734 11.1608 19.1089C11.1608 18.7444 11.2938 18.4292 11.5598 18.1632L15.8978 13.8252Z" fill="#031335"></path></g></svg>