<svg width="16" height="17" viewBox="0 0 16 17" fill="none" xmlns="http://www.w3.org/2000/svg"><mask id="mask0_2592_643" maskUnits="userSpaceOnUse" x="0" y="0" width="16" height="17"><rect y="0.5" width="16" height="16" fill="#D9D9D9"></rect></mask><g mask="url(#mask0_2592_643)"><path d="M10.2655 9.38349H3.23001C2.9846 9.38349 2.77602 9.29761 2.60428 9.12587C2.43255 8.95412 2.34668 8.74555 2.34668 8.50014C2.34668 8.25472 2.43255 8.04615 2.60428 7.8744C2.77602 7.70266 2.9846 7.61679 3.23001 7.61679H10.2655L7.36625 4.71754C7.18895 4.54024 7.10151 4.3313 7.10393 4.09072C7.10634 3.85013 7.1962 3.64119 7.3735 3.4639C7.5508 3.29771 7.75974 3.21341 8.00031 3.21099C8.24089 3.20857 8.44983 3.29602 8.62713 3.47332L13.0271 7.87332C13.1126 7.95883 13.1771 8.05617 13.2206 8.16535C13.2641 8.27453 13.2858 8.38612 13.2858 8.50014C13.2858 8.61415 13.2641 8.72574 13.2206 8.83492C13.1771 8.9441 13.1126 9.04144 13.0271 9.12695L8.61771 13.5364C8.44525 13.7088 8.23909 13.7951 7.99923 13.7951C7.75937 13.7951 7.5508 13.7088 7.3735 13.5364C7.1962 13.3591 7.10755 13.1489 7.10755 12.9059C7.10755 12.6629 7.1962 12.4528 7.3735 12.2755L10.2655 9.38349Z" fill="#092256"></path></g></svg>