<svg width="17" height="16" viewBox="0 0 17 16" fill="none" xmlns="http://www.w3.org/2000/svg"><mask id="mask0_354_4" maskUnits="userSpaceOnUse" x="0" y="0" width="17" height="16"><path d="M16.1816 0H0.181641V16H16.1816V0Z" fill="#D9D9D9"></path></mask><g mask="url(#mask0_354_4)"><path d="M4.84861 12.0006V9.33399L1.53191 4.36728C1.37631 4.14508 1.36521 3.91728 1.49861 3.68398C1.63191 3.45058 1.83191 3.33398 2.09861 3.33398H8.93191C9.19861 3.33398 9.39861 3.45058 9.53191 3.68398C9.66521 3.91728 9.65411 4.14508 9.49861 4.36728L6.18191 9.33399V12.0006H6.84861C7.03741 12.0006 7.19582 12.0645 7.32362 12.1923C7.45132 12.3201 7.51521 12.4784 7.51521 12.6673C7.51521 12.8562 7.45132 13.0145 7.32362 13.1423C7.19582 13.2701 7.03741 13.334 6.84861 13.334H4.18191C3.99301 13.334 3.83471 13.2701 3.70691 13.1423C3.57911 13.0145 3.51521 12.8562 3.51521 12.6673C3.51521 12.4784 3.57911 12.3201 3.70691 12.1923C3.83471 12.0645 3.99301 12.0006 4.18191 12.0006H4.84861ZM4.11521 6.00058H6.91521L7.84861 4.66728H3.18191L4.11521 6.00058Z" fill="#092256"></path><path d="M10.8477 13.334C10.2922 13.334 9.81996 13.1395 9.43106 12.7506C9.04216 12.3618 8.84766 11.8895 8.84766 11.334C8.84766 10.7784 9.04216 10.3062 9.43106 9.91728C9.81996 9.52838 10.2922 9.33399 10.8477 9.33399C10.97 9.33399 11.0866 9.34228 11.1977 9.35898C11.3088 9.37558 11.4144 9.41178 11.5144 9.46728V4.00058C11.5144 3.81178 11.5783 3.65338 11.7061 3.52558C11.8338 3.39788 11.9922 3.33398 12.1811 3.33398H13.8477C14.1255 3.33398 14.3616 3.43118 14.5561 3.62558C14.7505 3.82008 14.8477 4.05618 14.8477 4.33398C14.8477 4.61178 14.7505 4.84788 14.5561 5.04228C14.3616 5.23678 14.1255 5.33398 13.8477 5.33398H12.8477V11.334C12.8477 11.8895 12.6533 12.3618 12.2644 12.7506C11.8755 13.1395 11.4033 13.334 10.8477 13.334Z" fill="#0357EE"></path></g></svg>