<svg width="512" height="512" viewBox="0 0 512 512" fill="none" xmlns="http://www.w3.org/2000/svg">
<path d="M253.207 512H251.389C134.428 511.686 56.061 486.915 39.7738 471.638C22.6133 456.025 0 375.277 0 256C0 136.723 22.6133 55.9759 39.7974 40.3615C56.061 25.0844 134.735 0.313253 251.389 0H253.207C370.168 0.313253 448.535 25.0844 464.822 40.3615C482.006 55.9518 504.62 137.012 504.62 255.975C504.62 374.94 482.006 456 464.822 471.59C448.535 487.181 370.168 511.952 253.207 511.952V512Z" fill="#2456E4"/>
<path d="M368.658 271.278L359.003 151.688H300.818C300.818 151.688 256.512 243.76 252.594 256.29H251.98L205.266 151.688H146.798L137.144 255.374L129 360.579H164.573C179.939 360.579 185.981 353.856 187.185 337.326C187.185 337.326 193.205 240.989 192.307 226.916H192.922L194.739 233.35C197.146 241.904 230.311 324.193 230.311 324.193H274.027C274.027 324.193 307.192 243.133 311.416 226.941H312.031L317.153 337.35C318.356 353.856 324.682 360.603 339.765 360.603H375.338L368.705 271.302L368.658 271.278Z" fill="white"/>
</svg>
