<svg width="32" height="32" viewBox="0 0 32 32" fill="none" xmlns="http://www.w3.org/2000/svg">
<circle cx="16" cy="16" r="16" fill="white" fill-opacity="0.1"/>
<path d="M24.375 9.78309V23.2169C24.375 23.5241 24.253 23.8186 24.0358 24.0358C23.8186 24.253 23.5241 24.375 23.2169 24.375H9.78309C9.47594 24.375 9.18138 24.253 8.9642 24.0358C8.74701 23.8186 8.625 23.5241 8.625 23.2169V9.78309C8.625 9.47594 8.74701 9.18138 8.9642 8.9642C9.18138 8.74701 9.47594 8.625 9.78309 8.625H23.2169C23.5241 8.625 23.8186 8.74701 24.0358 8.9642C24.253 9.18138 24.375 9.47594 24.375 9.78309ZM13.2574 14.6471H10.9412V22.0588H13.2574V14.6471ZM13.4658 12.0993C13.467 11.9241 13.4337 11.7503 13.3678 11.588C13.3019 11.4257 13.2046 11.2779 13.0816 11.1532C12.9586 11.0284 12.8122 10.9291 12.6508 10.861C12.4894 10.7928 12.3162 10.7571 12.141 10.7559H12.0993C11.743 10.7559 11.4013 10.8974 11.1493 11.1493C10.8974 11.4013 10.7559 11.743 10.7559 12.0993C10.7559 12.4556 10.8974 12.7972 11.1493 13.0492C11.4013 13.3011 11.743 13.4426 12.0993 13.4426C12.2745 13.447 12.4488 13.4167 12.6123 13.3536C12.7759 13.2905 12.9253 13.1958 13.0522 13.0749C13.1791 12.9541 13.281 12.8094 13.3519 12.6491C13.4229 12.4888 13.4616 12.3162 13.4658 12.141V12.0993ZM22.0588 17.5562C22.0588 15.328 20.6413 14.4618 19.2331 14.4618C18.772 14.4387 18.3129 14.5369 17.9016 14.7466C17.4904 14.9563 17.1412 15.2702 16.8891 15.6569H16.8243V14.6471H14.6471V22.0588H16.9632V18.1167C16.9298 17.7129 17.0569 17.3123 17.3171 17.0018C17.5773 16.6913 17.9496 16.496 18.3529 16.4583H18.441C19.1775 16.4583 19.7241 16.9215 19.7241 18.0889V22.0588H22.0403L22.0588 17.5562Z" fill="white" fill-opacity="0.4"/>
</svg>
