<svg width="1265" height="314" viewBox="0 0 1265 314" fill="none" xmlns="http://www.w3.org/2000/svg">
<path d="M158.313 313.431H157.182C84.0555 313.242 35.0588 298.077 24.8841 288.712C14.135 279.168 0 229.74 0 156.715C0 83.8797 14.135 34.263 24.8755 24.7184C35.0503 15.3537 84.2441 0.188494 157.182 0H158.313C231.44 0.188494 280.436 15.3537 290.611 24.7184C301.352 34.2716 315.487 83.8883 315.487 156.715C315.487 229.551 301.352 279.168 290.611 288.712C280.436 298.266 231.431 313.431 158.313 313.431Z" fill="white"/>
<path d="M227.811 165.738L221.927 94.9453H186.459C186.459 94.9453 159.443 149.442 157.052 156.865H156.684L128.197 94.9453H92.5454L86.6606 156.318L81.6953 218.594H103.379C112.749 218.594 116.427 214.609 117.163 204.833C117.163 204.833 120.841 147.802 120.289 139.476H120.657L121.76 143.278C123.231 148.348 143.444 197.046 143.444 197.046H170.092C170.092 197.046 190.313 149.069 192.879 139.476H193.247L196.373 204.833C197.109 214.609 200.971 218.594 210.157 218.594H231.84L227.795 165.73L227.811 165.738Z" fill="#0357EE"/>
<path d="M1141.04 213.465H1113.29V130.759L1128.37 130.674C1132.11 130.674 1134.95 131.538 1136.87 133.251C1138.9 134.865 1139.92 137.117 1139.92 140.005V141.124L1139.77 143.05H1140.09C1145.76 133.506 1154.47 128.734 1166.24 128.734C1186.02 128.734 1195.91 139.071 1195.91 159.758V213.45H1179.87C1175.8 213.45 1172.81 212.544 1170.88 210.718C1169.07 208.792 1168.16 205.79 1168.16 201.712V164.898C1168.16 157.606 1165.12 153.967 1159.02 153.967C1150.9 153.967 1145.45 157.931 1142.66 165.86C1141.59 168.749 1141.05 172.402 1141.05 176.792V213.45L1141.04 213.465Z" fill="white"/>
<path fill-rule="evenodd" clip-rule="evenodd" d="M967.246 172.303C967.246 159.446 971.681 148.997 980.566 140.954C989.437 132.812 1000.5 128.734 1013.77 128.734C1027.03 128.734 1038.25 132.812 1047.12 140.954C1056.11 148.997 1060.6 159.446 1060.6 172.303C1060.6 185.16 1056.11 195.454 1047.12 203.496C1038.25 211.426 1027.19 215.39 1013.92 215.39C1000.66 215.39 989.649 211.426 980.566 203.496C971.695 195.454 967.246 185.061 967.246 172.303ZM995.161 172.303C995.161 178.193 996.933 183.022 1000.46 186.774C1004.1 190.413 1008.58 192.24 1013.94 192.24C1019.29 192.24 1023.71 190.413 1027.24 186.774C1030.89 183.022 1032.7 178.193 1032.7 172.303C1032.7 166.413 1030.89 161.429 1027.24 157.676C1023.71 153.825 1019.28 151.885 1013.94 151.885C1008.59 151.885 1004.1 153.811 1000.46 157.676C996.933 161.429 995.161 166.299 995.161 172.303Z" fill="white"/>
<path fill-rule="evenodd" clip-rule="evenodd" d="M871.903 245.621H899.649V215.39C899.649 213.252 899.55 210.888 899.323 208.311H899.649L901.902 210.08C903.617 211.369 906.238 212.544 909.767 213.62C913.408 214.796 917.036 215.39 920.678 215.39C931.802 215.39 940.998 211.426 948.268 203.496C955.537 195.567 959.179 185.117 959.179 172.147C959.179 159.177 955.764 148.614 948.92 140.798C942.174 132.756 933.205 128.734 921.967 128.734C916.724 128.734 912.076 129.641 908.009 131.467C903.943 133.294 901.108 135.007 899.507 136.607C898.005 138.108 897.254 139.014 897.254 139.34H896.928V137.896C896.928 135.757 896.021 134.044 894.207 132.756C892.493 131.368 889.829 130.66 886.187 130.66H871.478L871.903 152.848V245.621ZM903.177 186.774C900.287 182.923 898.841 178.193 898.841 172.629C898.841 166.087 900.343 161.046 903.333 157.521C906.323 153.981 910.234 152.211 915.038 152.211C919.842 152.211 923.753 154.08 926.743 157.832C929.733 161.584 931.235 166.512 931.235 172.629C931.235 178.746 929.69 183.461 926.587 187.1C923.597 190.64 919.743 192.409 915.038 192.409C910.333 192.409 906.167 190.54 903.163 186.788L903.177 186.774Z" fill="white"/>
<path fill-rule="evenodd" clip-rule="evenodd" d="M777.846 171.977C777.846 159.545 781.757 149.251 789.551 141.11C797.458 132.855 807.887 128.734 820.825 128.734C832.7 128.734 841.995 132.487 848.74 139.991C855.585 147.283 859 156.869 859 168.763L858.362 177.117H806.229C807.193 181.946 809.389 185.698 812.804 188.374C816.333 190.951 820.555 192.225 825.473 192.225C828.675 192.225 832.104 191.588 835.732 190.3C839.374 188.912 842.307 187.411 844.56 185.797L847.451 183.546L858.518 202.194C857.554 203.156 855.528 204.714 852.425 206.852C849.222 208.778 846.757 210.123 845.042 210.873C837.872 213.875 830.602 215.376 823.234 215.376C809.332 215.376 798.265 211.086 790.032 202.519C781.913 194.052 777.846 183.871 777.846 171.977ZM807.037 160.239H830.616C830.616 157.45 829.653 154.986 827.726 152.848C825.798 150.71 823.503 149.634 820.825 149.634C813.654 149.634 809.063 153.174 807.037 160.239Z" fill="white"/>
<path d="M738.588 201.726C738.588 205.804 739.495 208.806 741.309 210.731C743.236 212.558 746.226 213.464 750.293 213.464H766.334V142.398C766.334 138.32 765.37 135.375 763.443 133.562C761.629 131.637 758.682 130.674 754.615 130.674H738.574V201.74L738.588 201.726Z" fill="white"/>
<path d="M670.615 213.459H642.869V157.515C642.869 155.151 642.883 154.287 642.883 154.287V130.655H657.947C661.688 130.655 664.522 131.518 666.449 133.232C668.475 134.846 669.495 137.097 669.495 139.986V141.104L669.34 143.03H669.665C675.334 133.487 684.048 128.715 695.81 128.715C715.592 128.715 725.483 139.051 725.483 159.738V187.802C725.483 188.015 725.483 188.185 725.483 188.326C725.483 188.496 725.483 188.623 725.483 188.765C725.483 189.02 725.483 189.261 725.469 189.813C725.27 198.917 725.398 213.431 725.398 213.431H709.442C705.375 213.431 702.385 212.525 700.458 210.698C698.644 208.772 697.737 205.771 697.737 201.693V164.878C697.737 157.586 694.69 153.947 688.597 153.947C680.478 153.947 675.022 157.912 672.23 165.841C671.168 168.729 670.629 172.383 670.629 176.772V213.431L670.615 213.459Z" fill="white"/>
<path fill-rule="evenodd" clip-rule="evenodd" d="M540.575 172.303C540.575 159.446 545.01 148.997 553.895 140.954C562.766 132.812 573.833 128.734 587.096 128.734C600.36 128.734 611.583 132.812 620.454 140.954C629.438 148.997 633.93 159.446 633.93 172.303C633.93 185.16 629.438 195.454 620.454 203.496C611.583 211.426 600.516 215.39 587.252 215.39C573.989 215.39 562.978 211.426 553.895 203.496C545.024 195.454 540.575 185.061 540.575 172.303ZM568.491 172.303C568.491 178.193 570.262 183.022 573.79 186.774C577.432 190.413 581.924 192.24 587.266 192.24C592.609 192.24 597.058 190.413 600.587 186.774C604.228 183.022 606.042 178.193 606.042 172.303C606.042 166.413 604.228 161.429 600.587 157.676C597.058 153.825 592.623 151.885 587.266 151.885C581.91 151.885 577.432 153.811 573.79 157.676C570.262 161.429 568.491 166.299 568.491 172.303Z" fill="white"/>
<path d="M524.958 98.498L530.343 164.198L534.041 213.275H514.16C505.743 213.275 502.2 209.593 501.52 200.517L498.672 139.844H498.332C495.98 148.764 477.459 193.281 477.459 193.281H453.043C453.043 193.281 434.508 148.07 433.162 143.355L432.156 139.829H431.816C432.354 147.561 428.968 200.503 428.968 200.503C428.273 209.551 424.901 213.26 416.327 213.26H396.432L400.967 155.462L406.351 98.498H439.043L465.145 155.957H465.485C467.681 149.09 492.437 98.498 492.437 98.498H524.958Z" fill="white"/>
<path d="M1215.75 152.372V182.914C1215.75 194.383 1220.51 203.063 1230.03 208.954C1236.66 212.493 1244.78 214.263 1254.41 214.263C1257.4 214.263 1259.92 214.108 1261.94 213.782V189.668L1258.26 189.824C1248.43 189.824 1243.51 186.284 1243.51 179.219V152.372H1260.84V130.666H1243.51V108.322H1216.56V130.666H1205.16V152.372H1215.75Z" fill="white"/>
<path d="M766.154 109.253C766.154 112.199 765.687 115.064 764.817 117.752C764.205 119.619 762.707 121.116 760.838 121.712C758.164 122.565 755.313 123.031 752.365 123.031C749.417 123.031 746.566 122.565 743.892 121.712C742.023 121.116 740.525 119.619 739.913 117.752C739.043 115.064 738.576 112.199 738.576 109.253C738.576 106.307 739.043 103.442 739.913 100.754C740.525 98.887 742.023 97.3901 743.892 96.7945C746.566 95.9414 749.417 95.4746 752.365 95.4746C755.313 95.4746 758.164 95.9414 760.838 96.7945C762.707 97.3901 764.205 98.887 764.817 100.754C765.687 103.442 766.154 106.307 766.154 109.253Z" fill="white"/>
<path d="M1071.5 201.726C1071.5 205.804 1072.4 208.806 1074.22 210.731C1076.14 212.558 1079.13 213.464 1083.2 213.464H1099.24V142.398C1099.24 138.32 1098.28 135.375 1096.35 133.562C1094.54 131.637 1091.59 130.674 1087.52 130.674H1071.48V201.74L1071.5 201.726Z" fill="white"/>
<path d="M1099.06 109.253C1099.06 112.199 1098.59 115.064 1097.72 117.752C1097.11 119.619 1095.61 121.116 1093.74 121.712C1091.07 122.565 1088.22 123.031 1085.27 123.031C1082.32 123.031 1079.47 122.565 1076.8 121.712C1074.93 121.116 1073.43 119.619 1072.82 117.752C1071.95 115.064 1071.48 112.199 1071.48 109.253C1071.48 106.307 1071.95 103.442 1072.82 100.754C1073.43 98.887 1074.93 97.3901 1076.8 96.7945C1079.47 95.9414 1082.32 95.4746 1085.27 95.4746C1088.22 95.4746 1091.07 95.9414 1093.74 96.7945C1095.61 97.3901 1097.11 98.887 1097.72 100.754C1098.59 103.442 1099.06 106.307 1099.06 109.253Z" fill="white"/>
<g clip-path="url(#clip0_6885_804)">
<path d="M410.463 310.917L401.333 284.728H401.142V310.917H397.268V280.479H403.905L412.364 305.262H412.508L420.544 280.479H427.086V310.917H422.932V284.728H422.74L413.954 310.917H410.463Z" fill="white"/>
<path d="M463.43 280.479V310.917H459.277V280.479H463.43Z" fill="white"/>
<path d="M509.001 279.896C517.603 279.896 522.476 285.26 523.043 293.088L519.033 293.282C518.698 287.676 515.215 283.475 509.001 283.475C502.882 283.475 498.489 288.209 498.489 295.697C498.489 303.186 502.882 307.919 509.001 307.919C515.215 307.919 518.698 303.719 519.033 298.113L523.043 298.306C522.468 306.134 517.595 311.498 509.001 311.498C500.685 311.498 494.239 305.068 494.239 295.697C494.239 286.327 500.685 279.896 509.001 279.896Z" fill="white"/>
<path d="M573.485 310.917C572.91 310.093 572.479 307.871 572.239 304.301C572.047 300.916 570.474 298.646 566.36 298.646H557.853V310.917H553.795V280.479H566.025C573.669 280.479 577.351 284.049 577.351 289.461C577.351 294.147 574.196 296.61 570.522 297.047C574.204 297.774 575.969 300.044 576.257 303.614C576.64 308.057 576.784 309.802 577.782 310.909H573.485V310.917ZM565.793 295.31C570.905 295.31 573.198 293.379 573.198 289.607C573.198 286.125 570.905 283.904 565.793 283.904H557.861V295.31H565.793Z" fill="white"/>
<path d="M621.962 311.498C613.168 311.498 607.009 305.068 607.009 295.697C607.009 286.327 613.176 279.896 621.962 279.896C630.709 279.896 636.915 286.327 636.915 295.697C636.915 305.068 630.709 311.498 621.962 311.498ZM621.962 283.475C615.468 283.475 611.259 288.257 611.259 295.697C611.259 303.137 615.46 307.919 621.962 307.919C628.456 307.919 632.618 303.137 632.618 295.697C632.618 288.257 628.464 283.475 621.962 283.475Z" fill="white"/>
<path d="M667.668 310.917V280.479H688.212V283.96H671.782V294.058H684.682V297.539H671.782V310.925H667.676L667.668 310.917Z" fill="white"/>
<path d="M722.839 280.479V310.917H718.686V280.479H722.839Z" fill="white"/>
<path d="M775.813 303.768V280.479H779.679V310.917H776.38L758.895 286.472V310.917H755.029V280.479H759.327L775.805 303.768H775.813Z" fill="white"/>
<path d="M826.343 280.479L838.86 310.917H834.467L830.84 301.982H817.126L813.587 310.917H809.529L821.806 280.479H826.343ZM818.412 298.646H829.499L824.003 285.115H823.811L818.412 298.646Z" fill="white"/>
<path d="M889.494 303.768V280.479H893.36V310.917H890.062L872.576 286.472V310.917H868.71V280.479H873.008L889.486 303.768H889.494Z" fill="white"/>
<path d="M938.922 279.896C947.525 279.896 952.398 285.26 952.965 293.088L948.955 293.282C948.619 287.676 945.137 283.475 938.922 283.475C932.804 283.475 928.411 288.209 928.411 295.697C928.411 303.186 932.804 307.919 938.922 307.919C945.137 307.919 948.619 303.719 948.955 298.113L952.965 298.306C952.39 306.134 947.517 311.498 938.922 311.498C930.607 311.498 924.161 305.068 924.161 295.697C924.161 286.327 930.607 279.896 938.922 279.896Z" fill="white"/>
<path d="M1005.17 310.917H983.725V280.479H1004.75V283.96H987.743V293.525H1001.27V296.958H987.743V307.443H1005.18V310.925L1005.17 310.917Z" fill="white"/>
<path d="M1084.03 310.917H1071.23V280.479H1083.51C1090.96 280.479 1094.02 283.766 1094.02 288.597C1094.02 292.127 1091.54 294.542 1088.33 295.116C1092.01 295.746 1094.87 298.21 1094.87 302.556C1094.87 307.823 1091.06 310.917 1084.03 310.917H1084.03ZM1075.24 293.622H1083.65C1088 293.622 1089.87 291.739 1089.87 288.791C1089.87 285.891 1088 283.912 1083.65 283.912H1075.24V293.622ZM1075.24 296.861V307.492H1083.94C1088.43 307.492 1090.77 305.513 1090.77 302.225C1090.77 298.889 1088.43 296.861 1083.94 296.861H1075.24Z" fill="white"/>
<path d="M1139.77 280.479L1152.29 310.917H1147.9L1144.27 301.982H1130.56L1127.02 310.917H1122.96L1135.24 280.479H1139.77ZM1131.84 298.646H1142.93L1137.43 285.115H1137.24L1131.84 298.646Z" fill="white"/>
<path d="M1202.92 303.768V280.479H1206.78V310.917H1203.48L1186 286.472V310.917H1182.13V280.479H1186.43L1202.91 303.768H1202.92Z" fill="white"/>
<path d="M1259.04 310.917L1246.62 296.473L1243.13 300.052V310.925H1238.97V280.479H1243.13V295.504L1257.7 280.479H1262.62L1249.67 293.864L1264.05 310.917H1259.03H1259.04Z" fill="white"/>
</g>
<defs>
<clipPath id="clip0_6885_804">
<rect width="866.785" height="31.6015" fill="white" transform="translate(397.276 279.896)"/>
</clipPath>
</defs>
</svg>
