<svg width="85" height="84" viewBox="0 0 85 84" fill="none" xmlns="http://www.w3.org/2000/svg">
<path d="M42.5002 84H42.1951C22.5633 83.9486 9.40942 79.8846 6.67563 77.3782C3.79525 74.8165 -0.000366211 61.5689 -0.000366211 42C-0.000366211 22.4311 3.79525 9.18355 6.67959 6.6218C9.40942 4.1154 22.6148 0.0513931 42.1951 0H42.5002C62.132 0.0513931 75.2859 4.1154 78.0197 6.6218C80.904 9.17959 84.6996 22.4785 84.6996 41.996C84.6996 61.5136 80.904 74.8125 78.0197 77.3703C75.2859 79.9281 62.132 83.9921 42.5002 83.9921V84Z" fill="#FFFAEB"/>
<mask id="mask0_2501_28562" style="mask-type:alpha" maskUnits="userSpaceOnUse" x="22" y="22" width="41" height="41">
<rect x="22.7471" y="22.082" width="40" height="40" fill="#D9D9D9"/>
</mask>
<g mask="url(#mask0_2501_28562)">
<path d="M34.0109 53.5128C33.5295 53.9943 32.9716 54.2188 32.3373 54.1864C31.7031 54.154 31.2008 53.8739 30.8304 53.3461C28.9786 50.7257 27.9577 47.8438 27.7679 44.7003C27.5781 41.5568 28.2193 38.5961 29.6916 35.8183C29.7564 36.7443 29.9693 37.779 30.3304 38.9225C30.6915 40.066 31.1985 41.2628 31.8513 42.5128C32.504 43.7628 33.2841 45.0521 34.1915 46.3808C35.0989 47.7095 36.1128 49.0128 37.2332 50.2905L34.0109 53.5128ZM39.136 48.3878C37.7841 47.0174 36.6082 45.5475 35.6082 43.978C34.6082 42.4086 33.842 40.8924 33.3096 39.4294C32.7772 37.9664 32.4994 36.6262 32.4763 35.4086C32.4531 34.191 32.7424 33.2628 33.3443 32.6239C33.9832 31.9387 34.9253 31.5961 36.1707 31.5961C37.4161 31.5961 38.7957 31.8577 40.3096 32.3808C41.8235 32.9039 43.379 33.6632 44.9763 34.6586C46.5735 35.6539 48.0295 36.8276 49.3443 38.1794L39.136 48.3878ZM54.2749 29.9017C54.8027 30.272 55.0851 30.772 55.1221 31.4016C55.1591 32.0312 54.9369 32.5868 54.4554 33.0683L51.2471 36.2766C49.9971 35.1563 48.7124 34.147 47.3929 33.2489C46.0735 32.3507 44.7772 31.5776 43.504 30.9294C42.2309 30.2813 41.0086 29.779 39.8373 29.4225C38.6661 29.066 37.6082 28.8646 36.6638 28.8183C39.4508 27.3461 42.4276 26.6979 45.5943 26.8739C48.761 27.0498 51.6545 28.0591 54.2749 29.9017Z" fill="#092256"/>
<path d="M44.9136 46.0243L54.7192 55.8299C55.0062 56.1169 55.3488 56.2604 55.7469 56.2604C56.145 56.2604 56.4876 56.1169 56.7747 55.8299C57.0617 55.5428 57.2052 55.2003 57.2052 54.8021C57.2052 54.4039 57.0617 54.0614 56.7747 53.7743L46.9691 43.9688L44.9136 46.0243Z" fill="#0357EE"/>
</g>
</svg>
