<svg width="85" height="84" viewBox="0 0 85 84" fill="none" xmlns="http://www.w3.org/2000/svg">
<path d="M42.5006 84H42.1955C22.5637 83.9486 9.40979 79.8846 6.676 77.3782C3.79561 74.8165 0 61.5689 0 42C0 22.4311 3.79561 9.18355 6.67996 6.6218C9.40979 4.1154 22.6152 0.0513931 42.1955 0H42.5006C62.1323 0.0513931 75.2862 4.1154 78.02 6.6218C80.9044 9.17959 84.7 22.4785 84.7 41.996C84.7 61.5136 80.9044 74.8125 78.02 77.3703C75.2862 79.9281 62.1323 83.9921 42.5006 83.9921V84Z" fill="#FFFAEB"/>
<mask id="mask0_2501_28550" style="mask-type:alpha" maskUnits="userSpaceOnUse" x="22" y="22" width="40" height="40">
<rect x="22" y="22" width="40" height="40" fill="#D9D9D9"/>
</mask>
<g mask="url(#mask0_2501_28550)">
<path d="M41.9998 58.5C41.8365 58.5 41.6848 58.4861 41.5448 58.4583C41.4048 58.4306 41.2648 58.3889 41.1248 58.3333C37.2823 57.0463 34.2452 54.7356 32.0137 51.4013C29.7822 48.067 28.6665 44.3684 28.6665 40.3055V32.2361C28.6665 31.648 28.8343 31.1187 29.17 30.6482C29.5056 30.1778 29.9397 29.8367 30.472 29.625L41.0276 25.6805C41.361 25.5602 41.685 25.5 41.9998 25.5C42.3146 25.5 42.6387 25.5602 42.972 25.6805L53.5276 29.625C54.06 29.8367 54.494 30.1778 54.8297 30.6482C55.1653 31.1187 55.3332 31.648 55.3332 32.2361V40.3055C55.3332 40.6389 55.3239 40.9722 55.3054 41.3055C55.2869 41.6389 55.2591 41.9722 55.222 42.3055C55.0369 42.287 54.8702 42.2685 54.722 42.25C54.5739 42.2315 54.4073 42.2222 54.2221 42.2222C51.9536 42.2222 50.0022 42.9884 48.3679 44.5208C46.7336 46.0533 45.9165 47.9358 45.9165 50.1684V57.0278C45.4258 57.2963 44.9242 57.5308 44.4119 57.7315L42.8748 58.3333C42.7348 58.3889 42.5948 58.4306 42.4548 58.4583C42.3148 58.4861 42.1632 58.5 41.9998 58.5Z" fill="#092256"/>
<path d="M50.1111 58.6667C49.6612 58.6667 49.2756 58.506 48.9542 58.1846C48.6329 57.8633 48.4722 57.4777 48.4722 57.0278V51.8055C48.4722 51.3557 48.6329 50.97 48.9542 50.6487C49.2756 50.3273 49.6612 50.1667 50.1111 50.1667H50.1944V48.5C50.1944 47.5375 50.5208 46.7135 51.1736 46.0281C51.8264 45.3427 52.6296 45 53.5833 45C54.537 45 55.3356 45.3427 55.9792 46.0281C56.6227 46.7135 56.9444 47.5375 56.9444 48.5V50.1667H57.0555C57.4978 50.1667 57.8769 50.3273 58.1928 50.6487C58.5087 50.97 58.6667 51.3557 58.6667 51.8055V57.0278C58.6667 57.4777 58.5087 57.8633 58.1928 58.1846C57.8769 58.506 57.4978 58.6667 57.0555 58.6667H50.1111ZM51.8611 50.1667H55.3055V48.5C55.3055 47.9907 55.1402 47.5579 54.8096 47.2014C54.4789 46.8449 54.0692 46.6667 53.5804 46.6667C53.0916 46.6667 52.6829 46.8449 52.3542 47.2014C52.0255 47.5579 51.8611 47.9907 51.8611 48.5V50.1667Z" fill="#0357EE"/>
</g>
</svg>
