<svg width="32" height="32" viewBox="0 0 32 32" fill="none" xmlns="http://www.w3.org/2000/svg">
<circle cx="16" cy="16" r="16" fill="white" fill-opacity="0.1"/>
<path d="M23.4584 12.9296C23.4691 13.0839 23.4691 13.2382 23.4691 13.3939C23.4691 18.1381 19.8575 23.6095 13.2535 23.6095V23.6067C11.3026 23.6095 9.39229 23.0507 7.75 21.9971C8.03367 22.0312 8.31876 22.0483 8.60456 22.049C10.2213 22.0504 11.7917 21.508 13.0636 20.5091C11.5273 20.4799 10.18 19.4782 9.70937 18.0158C10.2476 18.1196 10.8021 18.0982 11.3303 17.9539C9.65534 17.6155 8.45028 16.1438 8.45028 14.4347C8.45028 14.4191 8.45028 14.4042 8.45028 14.3892C8.94937 14.6672 9.50818 14.8215 10.0798 14.8385C8.50218 13.7842 8.01589 11.6855 8.96857 10.0446C10.7914 12.2877 13.481 13.6513 16.3681 13.7956C16.0788 12.5486 16.4741 11.2419 17.4068 10.3653C18.8529 9.00592 21.1272 9.0756 22.4865 10.521C23.2906 10.3624 24.0613 10.0674 24.7666 9.64933C24.4985 10.4804 23.9376 11.1864 23.1883 11.635C23.8999 11.5511 24.5952 11.3606 25.25 11.0698C24.768 11.7921 24.1608 12.4213 23.4584 12.9296Z" fill="white" fill-opacity="0.4"/>
</svg>
