<svg width="32" height="32" viewBox="0 0 32 32" fill="none" xmlns="http://www.w3.org/2000/svg">
<circle cx="16" cy="16" r="16" fill="white" fill-opacity="0.1"/>
<path d="M21.2915 8.83301H11.7082C8.83317 8.83301 6.9165 10.7497 6.9165 13.6247V19.3747C6.9165 22.2497 8.83317 24.1663 11.7082 24.1663H21.2915C24.1665 24.1663 26.0832 22.2497 26.0832 19.3747V13.6247C26.0832 10.7497 24.1665 8.83301 21.2915 8.83301ZM18.3111 17.4868L15.944 18.9051C14.9857 19.4801 14.1998 19.0393 14.1998 17.918V15.0718C14.1998 13.9505 14.9857 13.5097 15.944 14.0847L18.3111 15.503C19.2215 16.0588 19.2215 16.9405 18.3111 17.4868Z" fill="white" fill-opacity="0.4"/>
</svg>
