<svg width="1728" height="424" viewBox="0 0 1728 424" fill="none" xmlns="http://www.w3.org/2000/svg">
<g clip-path="url(#clip0_339_233)">
<g opacity="0.4">
<path opacity="0.2" d="M672.718 756.831L677.039 758.2C955.338 845.615 1159.97 846.869 1210 823.493C1262.35 799.988 1375.84 628.599 1464.07 350.254C1552.31 71.9086 1558.28 -133.565 1528.97 -182.953C1501.61 -230.86 1332.89 -347.958 1055.78 -436.603L1051.46 -437.973C773.164 -525.387 568.527 -526.641 518.504 -503.265C466.117 -479.834 352.393 -307.714 264.391 -30.0998C176.389 247.514 170.187 453.719 199.508 503.051C226.697 551.707 394.687 668.573 672.753 756.718L672.718 756.831Z" fill="#022C77"/>
<path opacity="0.2" d="M645.252 842.406L650.193 843.973C968.403 943.923 1202.39 945.357 1259.58 918.629C1319.44 891.753 1449.21 695.784 1550.1 377.521C1650.98 59.2585 1657.81 -175.682 1624.3 -232.154C1593.01 -286.931 1400.1 -420.822 1083.25 -522.179L1078.31 -523.745C760.104 -623.695 526.119 -625.129 468.923 -598.401C409.023 -571.609 278.989 -374.806 178.367 -57.3789C77.7447 260.047 70.6535 495.825 104.18 552.232C135.268 607.866 327.348 741.49 645.293 842.277L645.252 842.406Z" fill="#00379B"/>
<path opacity="0.4" d="M696.678 682.861L700.464 684.06C944.266 760.534 1123.51 761.562 1167.32 741.069C1213.17 720.462 1312.52 570.298 1389.71 326.455C1466.91 82.6125 1472.07 -97.371 1446.38 -140.622C1422.39 -182.577 1274.57 -285.089 1031.81 -362.642L1028.02 -363.84C784.224 -440.314 604.974 -441.343 561.166 -420.85C515.286 -400.308 415.729 -249.502 338.74 -6.29947C261.751 236.902 256.39 417.526 282.09 460.728C305.923 503.339 453.111 605.648 696.71 682.763L696.678 682.861Z" fill="#022C77"/>
<path opacity="0.6" d="M774.783 628.773L778.176 629.407C996.575 669.685 1151.33 651.677 1186.96 629.379C1224.35 606.767 1294.23 466.74 1335.13 248.23C1376.02 29.7186 1361.5 -126.105 1334.78 -160.712C1309.66 -194.379 1171.32 -267.238 953.707 -308.556L950.315 -309.191C731.915 -349.468 577.16 -331.46 541.525 -309.162C504.108 -286.603 434.113 -146.002 393.328 71.9344C352.543 289.872 366.957 446.269 393.684 480.832C418.737 515.082 556.508 587.833 774.8 628.684L774.783 628.773Z" fill="#022C77"/>
<path opacity="0.8" d="M824.383 563.322L827.3 563.599C1015.09 580.98 1144.6 553.928 1173.04 532.346C1202.93 510.367 1251.34 386.598 1269.23 198.665C1287.12 10.7322 1262.94 -119.948 1237.7 -147.177C1213.88 -173.733 1091.31 -224.785 904.104 -243.107L901.187 -243.385C713.395 -260.766 583.884 -233.713 555.448 -212.131C525.526 -190.194 477.068 -65.9312 459.222 121.508C441.376 308.947 465.515 440.122 490.76 467.312C514.566 494.365 636.645 545.371 824.39 563.246L824.383 563.322Z" fill="#022C77"/>
<path d="M805.589 452.212L807.703 452.628C943.833 479.077 1040.57 468.753 1062.95 455.042C1086.43 441.146 1130.9 354.128 1157.73 217.933C1184.56 81.7381 1176.42 -15.6447 1159.95 -37.4123C1144.46 -58.5837 1058.52 -104.9 922.884 -131.993L920.77 -132.41C784.64 -158.858 687.904 -148.535 665.52 -134.823C642.023 -120.96 597.482 -33.5847 570.719 102.253C543.957 238.09 552.027 335.831 568.51 357.571C583.949 379.105 669.541 425.351 805.6 452.157L805.589 452.212Z" fill="#012059"/>
</g>
</g>
<defs>
<clipPath id="clip0_339_233">
<rect width="1728" height="424" fill="white"/>
</clipPath>
</defs>
</svg>
